<svg xmlns="http://www.w3.org/2000/svg" version="1.1" xmlns:xlink="http://www.w3.org/1999/xlink" xmlns:svgjs="http://svgjs.dev/svgjs" viewBox="0 0 1422 800" opacity="1"><defs><linearGradient x1="50%" y1="0%" x2="50%" y2="100%" id="ssscribble-grad"><stop stop-color="#8B5D33" stop-opacity="1" offset="0%"></stop><stop stop-color="#8B5D33" stop-opacity="1" offset="100%"></stop></linearGradient></defs><g fill="none" stroke-width="1.5" stroke="url(#ssscribble-grad)" stroke-linecap="round"><path d="M1604.91 788.95C1603.94 806.56 1559.37 823.96 1477.74 840.48 1368.16 856.14 1243.28 869.23 1116.67 878.01 999.56 883.63 904.02 882.11 837.82 871.28 805.34 854.7 807.81 826.4 842.21 785.29 991.86 687.95 1186.25 552.52 1356.53 414.33 1467.57 341.26 1483.27 361.49 1414.83 513.47 1279.92 758.48 1114.09 1030.02 950.78 1202.57 793.05 1179.94 668.39 961.97 577.81 666.15 539.96 556.9 508.81 499.71 483.02 509.85 460.69 589.18 441.74 726.47 424.87 898.48 409.65 1070.71 394.92 1210.88 379.77 1288.19 365.05 1285.2 349.06 1200.28 331.46 1049.44 313.86 867.62 295.05 696.14 275.48 571.35 256.35 517.43 237.29 543.5 219.3 640.12 202.98 788.11 189.31 953.64 179.7 1103.7 173.55 1214.02 173.43 1262.28 180.78 1243.08 210.34 1029.69 277.03 717.54 380.49 484.14 489.53 424.88 604.82 542.62 693.58 743.2 715.88 950.33 658.43 1066.2 510.73 1073.25 303.79 986.98 77.83 842.57 -97.62 688.1 -144.92 605.82 -158.86 530.01 -136.31 462.56 -80.05 396.71 7.07 340.11 117.4 292.62 237.21 246.89 356.91 209.13 463 178.67 541.15 148.81 583.94 125.15 584.91 107.54 542.3 89.94 462.99 78.8 357.32 74.37 235.08 70.53 112.32 74.5 2.21 87.03 -86.75 101.32 -143.66 125.3 -164.29 159.2 -148.6 194.71 -98.13 239.25 -19.2 291.03 197.26 384.49 425.24 470.92 600.6 502.95 692.8 441.67 689.98 275.28 617.55 22.01 493.39 -224.72 364.55 -384.23 260 -361.67 175.85 -164.96 135.9 115.62 133.38 303.22 140.75 309.54 154.37 249.86 172.42 129.62 193.99 -30.35 217.75 -204.29 242.17 -359.08 268.15 -462.52 293.21 -493.81 316.34 -443.41 339.85 -322.13 360.65 -152.46 378.26 29.35 395.86 180.23 409.85 266.97 420.63 273.49 431.79 199.68 440.51 64.72 447.74 -100.71 456.52 -265.93 465.37 -394.83 475.73 -464.26 489.63 -464.49 507.27 -395.86 530.41 -273.72 593.95 47.9 691.88 297.48 830.3 356.79 989.11 220.9 1168.49 -8.88 1338.81 -207.76 1457.37 -313.6 1501.94 -283.28 1446.41 -155.95 1307.7 36.49 1111.3 229.9 920.64 388.26 854.61 459.88 815.61 519.45 809.84 567.97 840.41 610.73 905.73 644.86 1001.49 672.44 1118.39 696.87 1246.34 717.56 1372.05 736.19 1481.21 753.96 1562.3 771.35 1604.91 788.95Q1604.91 788.95 1604.91 788.95" opacity="0.14"></path><path d="M1570.91 640.07C1533.8 672.93 1364.58 676.53 1133.78 648.75 917.99 616.5 788.64 548.88 773.63 453.39 868.55 371.76 1029.13 299.64 1199.59 277.41 1348.22 336.83 1429.43 488.8 1436.43 721.54 1377.68 959.23 1268.84 1137.39 1137.63 1166.94 989.22 1028.82 852.41 772.46 738.13 531.69 632.3 463.88 550.83 622.95 490.05 936.83 433.97 1204.07 390.72 1245.72 357.86 1015.44 325 682.2 304.08 490.09 298.19 557.89 297 829.65 318.69 1109.97 367.57 1226.59 424.9 1124.53 507.59 866.61 605.36 593.68 685.92 411.29 747.59 385.82 763.26 487.58 713.19 671.34 593.03 847.91 410.18 965.03 205.5 1019.37 15.45 997.38 -103.55 928.19 -112.62 822.99 -1.98 713.71 201.12 621.8 419.24 526.2 581.8 459.34 618.91 426.48 507.74 393.61 300.31 396.29 80.44 429.91 -82.82 459.84 -128.39 509.34 -52.28 557.61 118.76 569.87 330.41 537.76 525.33 432.79 671.65 265.05 741.1 41.3 739.65 -185.52 676.45 -330.39 581.96 -343.91 484.37 -195.76 382.54 42.93 307.13 271.4 262.78 349.41 232.47 208.76 228.43 -90.24 242.89 -374.71 262.87 -455.24 291.44 -269.86 324.3 63.35 357.17 293.7 392.76 258.78 434.75 4.25 482.26 -296.96 546.08 -437.37 633.34 -345.5 734.64 -80.66 864.17 205.17 1016.65 377.53 1164.88 382.21 1306.55 243.02 1412.82 48.4 1457.34 -141.27 1426.85 -246.07 1314.75 -254.84 1154.04 -181.97 971.87 -55.74 824.9 82.83 772.88 235.27 837.15 362.66 1013.1 456.89 1245.65 546.64 1459.74 607.21 1570.91 640.07Q1570.91 640.07 1570.91 640.07" opacity="0.43"></path><path d="M1536.91 302.33C1507.4 332.84 1360.78 331.54 1151.64 303.77 940.23 280.68 788.69 243.23 729.26 210.53 768.26 210.59 882.16 251.27 1030.23 355.49 1187.81 512.64 1309.14 720.01 1376.36 935.74 1392.05 1087.84 1353.51 1133.82 1278.45 1035.18 1173.72 831.62 1060.56 592.03 954.14 436.09 844.45 461.76 752.23 672 680.86 972.76 611.02 1193.18 560.44 1203.31 529.93 981.44 499.42 669.97 490.41 468.15 502.71 486.2 516.53 703.62 553.24 979.55 610.05 1160.98 663.59 1169.33 726.5 1004.04 784.2 755.12 812.23 510.64 806.96 362.55 751.28 333.45 644.07 412.42 486.56 550.1 297.21 691.49 117.36 824.82 -23.89 906.42 -85.26 936.77 -48.2 934.05 85.96 900.42 285.6 855.66 482.97 801.64 623.4 755.09 652.91 724.58 553.98 694.06 368.05 681.02 161.51 677.5 -10.26 664.71 -90.18 642.84 -64.43 592.7 54.45 509.48 232.19 377.65 422.43 197.29 597 8.87 720.65 -172.62 785.05 -291.6 792.99 -302.53 756.65 -190.63 697.41 22.05 616.54 239.21 541.78 377.16 484.77 346.48 430.25 142.72 399.25 -150.56 391.16 -379.79 386.03 -409.67 399.34 -214.09 429.86 97.35 460.37 319.29 506.64 315.41 569.32 106.8 634.95 -182.18 721.46 -375.1 828.86 -378.43 938.75 -200.15 1063.76 66.8 1191.66 302.14 1297.93 432.57 1378.08 422.78 1410.13 310.68 1385.72 134.94 1298.26 -28.61 1155.46 -138.75 996.99 -195.93 846.62 -186.36 750.09 -133.55 746.71 -47.96 844 44.99 1027.55 125.62 1245.86 210.93 1437.98 271.81 1536.91 302.33Q1536.91 302.33 1536.91 302.33" opacity="0.30"></path><path d="M1502.91 41.41C1480.27 69.57 1355.29 86.52 1169.35 99.09 968.44 119.92 804.46 152.35 709.96 211.71 696.99 297.91 758.12 426.08 867.16 594.83 1007.48 768.73 1139.91 938.58 1242.24 1058.95 1314.29 1089.02 1340.37 1012.11 1327.38 834.08 1283.73 624.02 1218.31 445.89 1145.11 387.48 1061.1 492.05 983.22 730.29 918.94 1003.89 853.29 1176.72 804.86 1159.45 776.69 947.44 748.52 658.43 741.96 452.02 754.49 426.38 765.64 585 792.28 834.52 827.48 1050.62 851.87 1151.46 870.9 1094.4 871.15 919.47 840.72 683.96 774.21 471.95 665.23 333.82 526 282.14 360.16 313.57 190.52 393.43 52.15 509.68 -34.23 618.2 -41.91 699.13 31.94 769.21 179.89 804.76 369.93 811.95 545 812.05 664.27 795.5 686.91 767.33 599.63 739.17 435 700.71 244.58 647.5 71.19 587.19 -34.3 500.4 -52.86 381.5 12.46 251.76 144.45 96.86 309.26 -62.79 484.96 -186.06 637.11 -257.93 749.28 -243.17 820.71 -141.97 848.12 36.63 843.44 242.81 810.28 388.43 766.65 420.25 725.82 298.78 678.17 62.06 644.93 -203.49 630.92 -373 616.89 -358.29 623.21 -157.64 651.37 131.35 679.54 343.42 728.22 366.46 795.37 204.54 862.5 -58.19 946.98 -280.42 1043.44 -364.37 1133.09 -285.34 1223.11 -81.96 1299.68 157.42 1347.76 364.79 1360.79 475.11 1326.28 481.96 1251.03 398.5 1132.27 269.09 985.9 138.6 850.42 13.27 743.69 -68.52 699.01 -105.91 738.21 -116.45 859.74 -97.65 1044 -65.35 1245.29 -24.8 1415.63 13.24 1502.91 41.41Q1502.91 41.41 1502.91 41.41" opacity="0.56"></path><path d="M1468.91 62.56C1452.41 88.38 1347.92 128.11 1186.07 184.5 1000.83 246.15 833.78 332.82 714.94 447.21 658.19 567.99 667.22 708.99 728.12 852.59 831.41 964.4 948.17 1033.85 1057.12 1031.2 1157.49 953.18 1227.38 801.45 1264.95 608.22 1279.61 443.75 1267.94 353.39 1239.14 388.03 1197.71 549.11 1151.09 792.42 1107.17 1028.06 1060.31 1154.43 1022.17 1114.18 996.35 913.44 964.39 544.47 951.47 581.95 947.99 905.46 932.04 1068.82 901.19 1112.32 846.74 1037.08 769.37 869.54 662.42 665.64 528.2 478.73 385.41 329.97 238.04 247.91 107.87 225.14 20.08 252.49 -12.09 307.54 25.72 366.74 125.64 437.58 277.99 490.63 453.27 518.57 605.15 545.73 704.41 546.94 720.91 521.12 644.69 495.3 500.94 443.68 328.83 367.82 160.1 291.19 38.17 191.17 -16.31 75.59 -1.05 -28.35 79.85 -125.92 204.46 -193.07 357.47 -210.09 510.62 -165.1 644.92 -50.19 758.4 102.87 837.83 276.15 886.08 416.81 908.79 465.18 911.83 398.55 905.71 216.28 881.21 -133.49 867.46 -200.97 897.42 165.34 923.24 366.13 965.38 411.68 1020.52 295.31 1073.51 69.65 1134.77 -158.98 1196.86 -301.16 1247.73 -316.9 1287.21 -203.4 1304.29 -12.05 1295.84 208.06 1253.47 390.41 1173.84 502.27 1073.38 538.77 950.84 506.39 824.71 434.38 726.99 330.57 669.24 232.09 672.9 156.05 746.32 86.41 882.94 46.71 1061.63 33.75 1243.71 26.05 1392.69 36.74 1468.91 62.56Q1468.91 62.56 1468.91 62.56" opacity="0.35"></path><path d="M1434.78 349.03C1424.04 372.51 1338.99 420.3 1201.67 490.02 1036.24 559.42 874.58 648.39 742.47 748.99 652.92 837.92 616.15 919.97 627.52 975.56 682.67 989.47 763.85 951.58 854.03 853.84 952.66 719.72 1037.99 558.36 1102.88 408.55 1156.69 322.76 1187.35 324.87 1198.12 433.61 1199.21 624.71 1187.43 852.6 1168.18 1043.17 1145.98 1126.02 1121.85 1067.42 1098.38 879.33 1074.9 636.97 1053.2 435.93 1031.14 345.39 1006.12 389.46 975.2 541.76 933.44 739.83 881.98 930.04 812.67 1047.6 722.69 1070.14 621.62 1001.7 502.6 864.87 373.2 699.22 252.25 523.53 143.24 375.83 63.66 269.09 27.84 197.03 43.56 163.59 115.9 154.97 230.81 166.64 379.11 183.09 535.49 192.36 663.74 205.76 744.04 202.98 754.78 179.51 688.64 156.04 564.87 112.98 412.5 55.32 253.96 1.78 124.77 -57.36 44.54 -109.71 17.65 -141.76 48.87 -146.98 126.13 -111.09 239.68 -40.53 370 73.46 499.73 218.39 626.92 353.27 734.62 462.28 819.07 506.27 887.13 459.29 934.24 320.69 965.91 113.27 987.01 -102 1001.64 -267.66 1015.62 -320.79 1026.78 -239.31 1042.83 -43.02 1066.3 199.33 1089.78 387.42 1119.56 450.78 1152.67 376.99 1182.95 195.47 1211.02 -19.05 1230.6 -192.95 1239.6 -284.48 1231.15 -265.54 1199.27 -155.3 1150.99 18.94 1076.99 208.13 980.56 373.01 881.6 501.51 779.1 573.1 689.99 595.37 637.17 575.96 627.01 532.56 671.1 484.31 768.53 424.39 911.09 378.11 1078.69 352.98 1240.11 327.53 1368.64 325.56 1434.78 349.03Q1434.78 349.03 1434.78 349.03" opacity="0.64"></path><path d="M1400.92 675.73C1394.42 696.86 1326.6 732.89 1212.96 779.41 1070.02 822.07 921.12 867.23 786.97 904.66 678.08 925.27 607.25 922.52 575.77 885.5 582.09 820.91 618.3 719.53 672.9 589.68 745.43 463.53 818.79 349.8 884.22 279.68 949.56 280.81 999.6 360.33 1032.79 514.81 1061.5 709.36 1075.02 905.58 1075.19 1047.9 1073.49 1091.74 1061.65 1019.58 1040.53 845.45 1019.4 627.08 989.99 435.38 951.85 324.94 911.85 320.55 859.89 415.06 794.58 571.05 724.77 753.64 639.94 908.05 542.05 1003.15 444.06 1031.69 340.37 989.29 240.15 895.92 157.86 763.88 96.61 622.03 68.29 490.75 77.78 366.52 129.66 269.06 223.07 198.11 341.73 141.16 478.61 102.7 613.4 75.39 718.88 52.76 782.42 32.6 788.92 11.47 732.93 -9.64 628.78 -30.73 497.3 -47.94 353.35 -60.47 224.84 -60.44 128.87 -40.1 69.71 -5.75 57.26 56.9 86.82 148.58 152.4 247.3 243.54 358.82 346.85 463.18 460.57 528.86 569.19 546.21 665.56 495.67 756.32 378.57 830.83 205.22 889.58 7.15 941.73 -164.32 982.2 -270.85 1013.87 -274.61 1043.3 -172.33 1068.01 15.08 1089.13 233.45 1110.26 407.58 1126.81 484.02 1137.22 448.33 1145.39 314.17 1143.35 129.97 1127.81 -49.09 1105.68 -188.08 1065.96 -248.66 1007.76 -227.79 943.96 -135.67 865.67 3.09 779.63 156.93 704 314.46 637.9 446.18 594.31 543.33 586.73 612.9 618.12 650.44 692.75 666.44 804.19 665.62 944.71 658.89 1096.82 656.06 1236.45 649.38 1344.89 654.6 1400.91 675.72Q1400.92 675.73 1400.92 675.73" opacity="0.20"></path><path d="M1366.91 785.39C1364.27 804.17 1312.31 819.28 1221.54 828.06 1102.75 833.26 972.12 825.64 845.33 799.88 729.83 763.98 638.28 704.46 575.1 621.38 539.72 533.48 531.52 433.59 544.34 336.26 577.17 266.99 619.68 231.45 664.19 247.3 715.71 320.26 760.93 448.39 795.73 617.06 830.9 792.13 853.44 945.93 862.21 1040.62 870.51 1051.23 865.6 970.3 846.82 811.35 828.04 617.29 796.28 438.85 752.57 317.16 708.39 273.95 651.69 313.28 583.98 416.28 516.63 563.88 440.49 716.83 360.03 845.9 286.58 941.68 217.11 984.83 159.67 978.56 122.24 929.96 108.17 850.41 124 756.63 167.64 648.65 242.34 546.22 344.08 457.73 457.11 370.91 577.05 301.74 688.6 250.68 772.11 201.58 820.27 167.64 822.91 148.87 776.02 130.09 690.12 127.36 579.68 141.05 453.72 156.69 333.29 191.7 232.13 245.98 153.12 301.92 108.1 373.44 97.03 452.47 115.85 517.31 161.7 569.9 225.91 593.89 306.43 575.55 392.51 510.14 476.59 394.8 563.56 246.19 641.84 76.39 708.5 -84.96 773.35 -201.73 826.36 -251.74 867.32 -215.78 907.26 -101.34 936.82 73.29 955.6 267.35 974.39 426.3 981.5 511.04 976.98 507.67 971.44 420.23 952.59 277.11 920.28 115.81 886.17 -39.1 838.81 -150.38 780.78 -203.79 725.65 -200.09 666.51 -142.28 610.6 -48.4 571 73.53 547.4 200.38 548.13 317.21 578.74 429.24 640.59 519.68 733.34 588.12 848.27 646.42 979.38 688.2 1112.58 718.41 1230.27 745.04 1319.99 766.6 1366.9 785.38Q1366.91 785.39 1366.91 785.39" opacity="0.49"></path><path d="M1332.9 591.8C1295.79 624.66 1128.36 592.29 911.26 496.58 699.71 400.47 555.98 271.43 491.15 187.23 491.94 228.49 530.17 421.35 566.05 723.54 614.62 966.98 629.88 1007.7 597.02 777.34 564.16 444.12 486.29 250.31 380.77 291.06 287.94 516.79 198.43 761.94 154.57 903.83 176.33 935.23 285.21 858.17 472.66 749.9 665.68 614.61 819.79 516.65 856.9 483.79 745.73 450.93 547.37 486.28 350.08 564.62 194.21 615.94 136.98 641.71 166.43 567.25 259.51 382.29 381.63 102.28 491.08 -147.52 607.34 -212.36 688.39 -31.87 721.25 301.34 754.12 531.7 735.67 504.3 676.37 284.95 623.86 6.84 553.02 -151.15 503.02 -149.35 516.63 -22.07 608.71 158.24 788.68 311.3 1010.05 463.95 1221.73 558.94 1332.9 591.8Q1332.9 591.8 1332.9 591.8" opacity="0.21"></path><path d="M1298.92 247.43C1276.25 275.6 1152.32 249.25 978.33 190.69 787.18 154.46 627.13 137.3 519.47 193.49 453.68 335.17 428.28 565.69 420.12 816.79 426.5 971.89 422.52 955.46 394.35 743.45 366.19 454.44 316.5 248.17 261.31 207.4 220.66 326.31 202.1 520.6 230.97 692.29 301.71 827.89 431.89 877.89 602.4 868.4 755.74 828.82 868.25 781.02 890.92 752.86 803.68 724.69 646.6 718.82 477.25 709.59 317.8 670.27 218.87 576.31 185.96 403.79 200.52 195.19 254.63 -28.98 318.39 -168.52 394.44 -148.4 454.39 46.44 482.56 335.45 510.74 547.46 504.46 575.3 477.22 440.85 462.27 210.39 452.11 9.75 474.45 -95.01 544.27 -114.27 673.06 -53.16 853.15 31.87 1043.14 139.25 1211.64 219.26 1298.91 247.42Q1298.92 247.43 1298.92 247.43" opacity="0.24"></path><path d="M1264.92 22.98C1253.79 46.45 1168.77 59.64 1040.33 79.61 885.81 120.39 737.83 202.64 618.29 342.69 517.25 512.99 448.32 712.64 404.51 881.12 370.89 954.01 345.69 897.53 322.22 709.45 298.75 467.09 279.22 267.39 272.17 171.95 275.3 189.84 307.6 292.47 377.88 420.43 466.65 565.39 589.73 670.53 727.05 724.2 838.29 763.99 913.79 767.7 924.92 744.23 859.15 720.76 741.63 672.33 607.32 591.86 465 497.51 353.59 355.74 285.45 180.02 243.83 21.29 238.92 -106.22 256.03 -141.32 283.75 -63.09 314.69 127.09 338.16 369.45 361.64 557.53 375.42 623.52 388.37 567.84 411.93 416.56 453.47 241.81 525.84 102.27 624.73 -7.01 761.04 -52.62 920.56 -52.73 1072.08 -32.02 1199.12 -0.49 1264.91 22.97Q1264.92 22.98 1264.92 22.98" opacity="0.85"></path><path d="M1230.91 95.09C1228.3 113.87 1176.17 158.18 1091.21 229.48 981.5 308.49 865.99 423.13 761.84 564.21 660.23 697.83 578.58 824.2 520.17 904.35 466.03 912.38 429.28 834.35 410.5 675.44 391.72 481.35 392.7 304.76 414.3 185.16 440.16 130.29 492.5 140.34 569.51 189.26 649.04 271.81 744.64 351.5 840.59 405.82 911.78 461.76 956.3 483.59 958.91 464.81 912 446.03 830.53 388.42 733.9 299.94 622.88 213.08 523.8 104.08 448.99 -3.06 383.42 -76.59 344.82 -106.57 330.53 -65.46 321.97 40.37 328.75 209.35 347.53 403.44 366.31 562.35 395.3 647.99 436.41 653.73 483.24 587.34 551.14 480.88 641.32 371.87 740.75 255.4 859.74 170.07 984.53 123.6 1094.92 84.84 1184 76.31 1230.91 95.09Q1230.91 95.09 1230.91 95.09" opacity="0.14"></path><path d="M1196.92 407.06C1174.25 435.23 1052.31 578.52 914.85 758.03 760.96 867.84 650.83 853.46 622.66 641.45 594.49 352.42 653.63 146.79 770.6 83.15 871.14 114.31 970.25 162.58 992.92 134.41 905.66 106.24 763.62 6.98 647.45 -61.09 530.21 -34.37 478.7 148.42 506.87 437.45 535.03 649.46 637.54 686.67 791.7 613.78 944.78 471.18 1109.66 378.89 1196.92 407.06Q1196.92 407.06 1196.92 407.06" opacity="0.85"></path><path d="M1162.91 713.46C1108.49 751.02 908.93 850.04 871.38 607.44 833.82 233.04 972.49 50.47 1026.91 12.91 889.65 -24.63 712.75 97.04 750.31 471.44 787.86 714.04 1025.65 675.91 1162.91 713.46Q1162.91 713.46 1162.91 713.46" opacity="0.09"></path></g></svg>